<?xml version="1.0" standalone="no"?>
<svg xmlns:xlink="http://www.w3.org/1999/xlink" id="wave" style="transform:rotate(180deg); transition: 0.3s" viewBox="0 0 1440 100" version="1.1" xmlns="http://www.w3.org/2000/svg"><defs><linearGradient id="sw-gradient-0" x1="0" x2="0" y1="1" y2="0"><stop stop-color="rgba(255, 249, 234, 1)" offset="0%"/><stop stop-color="rgba(255, 249, 234, 1)" offset="100%"/></linearGradient></defs><path style="transform:translate(0, 0px); opacity:1" fill="url(#sw-gradient-0)" d="M0,30L26.7,25C53.3,20,107,10,160,5C213.3,0,267,0,320,10C373.3,20,427,40,480,43.3C533.3,47,587,33,640,35C693.3,37,747,53,800,56.7C853.3,60,907,50,960,40C1013.3,30,1067,20,1120,20C1173.3,20,1227,30,1280,38.3C1333.3,47,1387,53,1440,56.7C1493.3,60,1547,60,1600,50C1653.3,40,1707,20,1760,18.3C1813.3,17,1867,33,1920,35C1973.3,37,2027,23,2080,20C2133.3,17,2187,23,2240,35C2293.3,47,2347,63,2400,60C2453.3,57,2507,33,2560,21.7C2613.3,10,2667,10,2720,10C2773.3,10,2827,10,2880,21.7C2933.3,33,2987,57,3040,68.3C3093.3,80,3147,80,3200,75C3253.3,70,3307,60,3360,58.3C3413.3,57,3467,63,3520,68.3C3573.3,73,3627,77,3680,65C3733.3,53,3787,27,3813,13.3L3840,0L3840,100L3813.3,100C3786.7,100,3733,100,3680,100C3626.7,100,3573,100,3520,100C3466.7,100,3413,100,3360,100C3306.7,100,3253,100,3200,100C3146.7,100,3093,100,3040,100C2986.7,100,2933,100,2880,100C2826.7,100,2773,100,2720,100C2666.7,100,2613,100,2560,100C2506.7,100,2453,100,2400,100C2346.7,100,2293,100,2240,100C2186.7,100,2133,100,2080,100C2026.7,100,1973,100,1920,100C1866.7,100,1813,100,1760,100C1706.7,100,1653,100,1600,100C1546.7,100,1493,100,1440,100C1386.7,100,1333,100,1280,100C1226.7,100,1173,100,1120,100C1066.7,100,1013,100,960,100C906.7,100,853,100,800,100C746.7,100,693,100,640,100C586.7,100,533,100,480,100C426.7,100,373,100,320,100C266.7,100,213,100,160,100C106.7,100,53,100,27,100L0,100Z"/></svg>